<?xml version="1.0" standalone="no"?><!DOCTYPE svg PUBLIC "-//W3C//DTD SVG 1.1//EN" "http://www.w3.org/Graphics/SVG/1.1/DTD/svg11.dtd"><svg t="1688350383958" class="icon" viewBox="0 0 1024 1024" version="1.1" xmlns="http://www.w3.org/2000/svg" p-id="1780" xmlns:xlink="http://www.w3.org/1999/xlink" width="200" height="200"><path d="M639.93 97.906h127.906v670.25h-127.906z" fill="#434A54" p-id="1781"></path><path d="M511.992 512.312c-141.296 0-255.844 114.532-255.844 255.844S370.696 1024 511.992 1024c141.312 0 255.844-114.532 255.844-255.844s-114.532-255.844-255.844-255.844z m0 383.75c-70.532 0-127.922-57.376-127.922-127.906s57.39-127.938 127.922-127.938 127.938 57.406 127.938 127.938-57.406 127.906-127.938 127.906z" fill="#656D78" p-id="1782"></path><path d="M256.148 97.906h127.922v670.25h-127.922z" fill="#656D78" p-id="1783"></path><path d="M426.71 672.906v-146a252.608 252.608 0 0 0-42.64 19.656v221.594c0-37.812 16.484-71.812 42.64-95.25z" fill="#434A54" p-id="1784"></path><path d="M234.632 0h170.954v186.562h-170.954z" fill="#E6E9ED" p-id="1785"></path><path d="M298.79 85.282c0 11.782-9.546 21.312-21.312 21.312-11.782 0-21.328-9.532-21.328-21.312s9.546-21.312 21.328-21.312c11.764-0.002 21.312 9.53 21.312 21.312zM384.07 85.282c0 11.782-9.546 21.312-21.312 21.312-11.782 0-21.328-9.532-21.328-21.312s9.546-21.312 21.328-21.312c11.766-0.002 21.312 9.53 21.312 21.312z" fill="#CCD1D9" p-id="1786"></path><path d="M426.71 341.124l-42.64 42.658h-127.922l-42.64-42.658V127.906h213.202z" fill="#48CFAD" p-id="1787"></path><path d="M810.492 213.218l-42.656 42.626h-127.906l-42.656-42.626V0h213.218z" fill="#48CFAD" p-id="1788"></path><path d="M618.618 106.594c0-11.782-9.562-21.312-21.344-21.312v42.624c11.78 0 21.344-9.53 21.344-21.312zM789.148 106.594c0 11.782 9.532 21.312 21.344 21.312V85.282c-11.812 0-21.344 9.53-21.344 21.312z" fill="#37BC9B" p-id="1789"></path></svg>